<svg xmlns="http://www.w3.org/2000/svg" viewBox="0 0 18.127 18.262" fill="none" width="100%" height="100%">
  <path fill-rule="evenodd" clip-rule="evenodd" d="M9.02687 0C9.51791 0 10.0351 0.01579 10.1709 0.04738C10.3119 0.0737 10.6672 0.1474 10.9701 0.21058C11.2731 0.27375 11.7537 0.40536 12.041 0.50538C12.3284 0.60541 12.809 0.81598 13.1119 0.96865C13.4149 1.12132 13.8746 1.38981 14.1306 1.56353C14.3866 1.73726 14.7993 2.05839 15.0448 2.26896C15.2903 2.48481 15.6612 2.85858 15.8701 3.10074C16.0791 3.34817 16.3978 3.75879 16.5702 4.02202C16.7425 4.28524 17.009 4.74324 17.1604 5.04858C17.3119 5.35391 17.5209 5.83824 17.6201 6.1278C17.7194 6.4173 17.85 6.8806 17.9075 7.1543C17.9649 7.4281 18.0381 7.8861 18.0694 8.1651C18.1007 8.4494 18.1269 8.8811 18.1269 9.1285C18.1269 9.3759 18.1007 9.8076 18.0694 10.0866C18.0381 10.3709 17.9649 10.8289 17.9075 11.1027C17.85 11.3764 17.7194 11.8397 17.6201 12.1292C17.5209 12.4188 17.3119 12.9031 17.1604 13.2084C17.009 13.5138 16.7425 13.977 16.5702 14.235C16.3978 14.4929 16.0791 14.9088 15.8701 15.1563C15.656 15.4037 15.2851 15.7775 15.0448 15.988C14.7993 16.1986 14.3866 16.5197 14.1306 16.6935C13.8746 16.8672 13.4149 17.1357 13.1119 17.2883C12.809 17.441 12.3284 17.6516 12.041 17.7516C11.7537 17.8516 11.294 17.9832 11.0224 18.0412C10.7507 18.0991 10.2963 18.1728 10.0142 18.2044C9.73731 18.2359 9.30896 18.2623 9.06343 18.2623C8.81791 18.2623 8.38955 18.2359 8.10746 18.2044C7.8306 18.1728 7.37612 18.0991 7.10448 18.0412C6.83284 17.9832 6.37313 17.8516 6.08582 17.7516C5.79851 17.6516 5.31791 17.441 5.01493 17.2883C4.71194 17.1357 4.25224 16.8672 3.99627 16.6935C3.73507 16.5197 3.32761 16.1986 3.08209 15.988C2.84179 15.7775 2.4709 15.4037 2.25672 15.1563C2.04776 14.9088 1.7291 14.4929 1.55672 14.235C1.38433 13.977 1.11791 13.5138 0.966418 13.2084C0.814925 12.9031 0.60597 12.4188 0.506716 12.1292C0.407463 11.8397 0.276866 11.3764 0.219403 11.1027C0.16194 10.8289 0.088806 10.3709 0.0574627 10.0866C0.0261194 9.8076 0 9.3759 0 9.1285C0 8.8811 0.0261194 8.4494 0.0574627 8.1651C0.088806 7.8861 0.16194 7.4281 0.219403 7.1543C0.276866 6.8806 0.407463 6.4173 0.506716 6.1278C0.60597 5.83824 0.814925 5.35391 0.966418 5.04858C1.11791 4.74324 1.38433 4.28524 1.55672 4.02202C1.7291 3.75879 2.04776 3.34817 2.25672 3.10074C2.4709 2.85331 2.84179 2.47954 3.08209 2.26896C3.32761 2.05839 3.73507 1.73726 3.99627 1.56353C4.25224 1.38981 4.71194 1.12132 5.01493 0.96865C5.31791 0.81598 5.79851 0.60541 6.08582 0.50538C6.37313 0.40536 6.84328 0.27375 7.1306 0.21584C7.41791 0.15793 7.75746 0.08423 7.88806 0.05791C8.01866 0.03159 8.5306 0.00526 9.02164 0H9.02687ZM6.95299 2.41637C6.68134 2.5006 6.25821 2.66906 6.01269 2.79014C5.76716 2.90596 5.35448 3.15339 5.09851 3.32711C4.83731 3.5061 4.40373 3.87988 4.13209 4.15363C3.86045 4.43264 3.55746 4.76956 3.46343 4.90644L3.29627 5.15386C4.03806 5.74874 4.45075 6.012 4.83731 6.2067C5.21343 6.3963 5.67313 6.5805 5.98657 6.6648C6.46194 6.7911 6.59254 6.8069 7.44925 6.8069C8.30597 6.8069 8.43657 6.7911 8.91194 6.6648C9.19925 6.5858 9.64851 6.4173 9.90448 6.2962C10.1604 6.1699 10.5261 5.96458 10.7142 5.83824C10.9022 5.70663 11.247 5.42761 11.4873 5.20651L11.9209 4.81168L13.3522 6.2541C12.741 6.9332 12.4642 7.2807 12.3336 7.4702C12.2082 7.6597 12.0045 8.0282 11.8791 8.2862C11.759 8.5441 11.5918 8.9969 11.5134 9.2864C11.3881 9.7655 11.3724 9.8971 11.3724 10.7605C11.3724 11.6238 11.3881 11.7554 11.5134 12.2345C11.597 12.5504 11.7799 13.0136 11.9679 13.3927C12.1612 13.7822 12.4224 14.1981 12.647 14.4877L13.0127 14.9457C13.394 14.6825 13.7284 14.3771 14.0052 14.1034C14.2769 13.8296 14.6478 13.3874 14.8202 13.1295C14.9978 12.8715 15.2276 12.4767 15.3373 12.2608C15.447 12.045 15.609 11.6291 15.703 11.3396C15.8022 11.05 15.9172 10.5867 15.959 10.313C16.006 10.034 16.0425 9.5075 16.0425 9.1285C16.0425 8.7495 16.006 8.223 15.959 7.944C15.9172 7.6703 15.8022 7.207 15.703 6.9174C15.609 6.6279 15.447 6.212 15.3373 5.99617C15.2276 5.78033 15.0396 5.44867 14.9142 5.25915C14.794 5.06963 14.5433 4.73798 14.3604 4.52213C14.1776 4.30629 13.8642 3.98516 13.6604 3.8167C13.4619 3.64824 13.1328 3.39555 12.9343 3.25867C12.7306 3.1218 12.391 2.92175 12.1769 2.8112C11.9627 2.70065 11.55 2.53745 11.2627 2.44269C10.9754 2.34267 10.5157 2.22685 10.244 2.18473C9.94105 2.13209 9.46567 2.1005 9.01642 2.10577C8.61418 2.10577 8.09702 2.14262 7.86716 2.18473C7.63731 2.22685 7.22463 2.32687 6.95299 2.41637ZM2.16791 7.9703C2.12612 8.202 2.09478 8.7231 2.09478 9.1285C2.09478 9.5549 2.13134 10.0656 2.17836 10.3393C2.22015 10.5973 2.33507 11.05 2.4291 11.3396C2.52836 11.6291 2.6903 12.045 2.8 12.2608C2.9097 12.4767 3.09254 12.8031 3.21269 12.9873C3.33284 13.1663 3.43731 13.3137 3.45299 13.3137C3.46866 13.3137 4.45075 12.3345 5.63657 11.1448L7.78881 8.9706C6.83806 8.9074 6.36269 8.8547 6.11716 8.8126C5.87164 8.7705 5.4694 8.6758 5.21343 8.6021C4.96269 8.5284 4.53955 8.3757 4.27313 8.2599C4.01194 8.1441 3.62537 7.9493 3.42687 7.8282C3.22313 7.7071 2.91493 7.4913 2.73209 7.3544C2.55448 7.2175 2.39776 7.1017 2.38209 7.1017C2.37164 7.1017 2.33507 7.2017 2.29851 7.3281C2.26716 7.4492 2.2097 7.7387 2.16791 7.9703ZM7.04701 12.603C5.80373 13.8612 4.91045 14.8088 4.94179 14.8299C4.97313 14.8509 5.12985 14.9562 5.29702 15.0668C5.45896 15.1721 5.76716 15.3458 5.9709 15.4511C6.17985 15.5564 6.58731 15.7196 6.87463 15.8196C7.16194 15.9143 7.60597 16.0302 7.86716 16.0723C8.13881 16.1196 8.64552 16.1565 9.06866 16.1565C9.4709 16.1565 9.98806 16.1249 10.2179 16.0828C10.4478 16.0407 10.7351 15.9828 10.8552 15.9512C10.9806 15.9196 11.0799 15.8827 11.0799 15.867C11.0799 15.8512 10.9649 15.6932 10.8291 15.5142C10.6933 15.33 10.4791 15.0194 10.359 14.8141C10.2388 14.6088 10.0455 14.2245 9.9306 13.9612C9.81567 13.6927 9.66418 13.2663 9.59105 13.0136C9.51791 12.7557 9.42388 12.3345 9.38209 12.0766C9.33508 11.8186 9.28284 11.3343 9.25672 11.0079L9.2097 10.413L7.04701 12.603Z" fill="currentColor"/>
</svg>
