<svg xmlns="http://www.w3.org/2000/svg" width="24" height="24" viewBox="0 0 25 24" fill="none">
  <path fill="currentColor" fill-opacity="0.81" d="M.51 23.674a2.51 2.51 0 0 0 2.51-2.51V3.59A3.337 3.337 0 0 1 6.369.244H21.43c1.83 0 3.347 1.516 3.347 3.347v16.735a3.337 3.337 0 0 1-3.347 3.348H.51ZM6.368 4.846V9.03c0 .732.523 1.255 1.255 1.255h5.858c.68 0 1.255-.523 1.255-1.255V4.846c0-.68-.575-1.255-1.255-1.255H7.623c-.732 0-1.255.575-1.255 1.255Zm0 9.623c0 .47.366.837.837.837h13.388c.419 0 .837-.366.837-.837 0-.418-.418-.837-.837-.837H7.205c-.471 0-.837.418-.837.837Zm0 5.02c0 .471.366.837.837.837h13.388c.419 0 .837-.366.837-.836 0-.419-.418-.837-.837-.837H7.205c-.471 0-.837.418-.837.837ZM17.246 4.428c0 .471.366.837.837.837h2.51c.419 0 .837-.366.837-.837 0-.418-.418-.836-.837-.836h-2.51c-.47 0-.837.418-.837.836Zm0 5.021c0 .47.366.837.837.837h2.51c.419 0 .837-.366.837-.837 0-.418-.418-.837-.837-.837h-2.51c-.47 0-.837.419-.837.837Z"/>
</svg>
