<svg xmlns="http://www.w3.org/2000/svg" width="24" height="24" viewBox="0 0 48 48" fill="none">
  <path fill="currentColor" fill-opacity="0.38" d="M3.64 3.679c0-1.403 1.155-2.64 2.64-2.64 1.403 0 2.64 1.237 2.64 2.64 0 1.485-1.237 2.64-2.64 2.64a2.606 2.606 0 0 1-2.64-2.64Zm.248 28.628c.412-.907.742-1.815 1.072-2.722l9.735 9.735c-.907.33-1.815.66-2.722 1.073a373.649 373.649 0 0 0-8.085-8.086Zm2.887-7.672c.33-.908.743-1.816 1.073-2.723l14.52 14.52-2.722 1.073-12.87-12.87Zm8.003-13.778.66-.66c1.402-1.32 2.228-3.136 2.475-5.116l.248-2.227c.082-.99.907-1.815 1.897-1.815.083 0 .165 0 .248.082 1.072.083 1.897 1.073 1.732 2.145l-.247 2.228c-.248 2.888-1.568 5.528-3.548 7.508l-.742.66a1.807 1.807 0 0 1-2.723 0c-.825-.743-.825-1.98 0-2.805Zm7.755 8.002a2.057 2.057 0 0 1 .248-2.805l.825-.66c1.237-1.072 2.805-1.567 4.372-1.567 1.403 0 2.558-.99 2.64-2.393l.083-2.475c.247-3.465 3.218-6.188 6.683-6.105.66 0 1.237-.248 1.732-.578l.825-.742c.825-.743 2.063-.578 2.805.247.66.825.578 2.063-.247 2.805l-.825.66C40.436 6.32 38.869 6.814 37.3 6.814c-1.402-.083-2.557.99-2.64 2.393l-.165 2.475c-.165 3.465-3.135 6.187-6.6 6.105-.66 0-1.238.165-1.733.577l-.825.743a2.057 2.057 0 0 1-2.805-.248Zm8.085 7.838.66-.66c1.98-1.98 4.62-3.3 7.508-3.547l2.228-.248c1.072-.165 2.062.66 2.227 1.732v.166c0 .99-.742 1.897-1.815 1.98l-2.227.247c-1.98.248-3.795 1.073-5.115 2.475l-.743.66a1.807 1.807 0 0 1-2.723 0c-.825-.742-.825-1.98 0-2.805Zm7.343-12.458c0-1.402 1.155-2.64 2.64-2.64 1.403 0 2.64 1.238 2.64 2.64 0 1.485-1.237 2.64-2.64 2.64a2.606 2.606 0 0 1-2.64-2.64Zm0 23.761c0-1.403 1.155-2.64 2.64-2.64 1.403 0 2.64 1.237 2.64 2.64 0 1.485-1.237 2.64-2.64 2.64a2.606 2.606 0 0 1-2.64-2.64Z"/>
  <path fill="currentColor" fill-opacity="0.8" d="M10.983 16.962a2.655 2.655 0 0 1 2.392.742l13.2 13.2c.66.578.908 1.568.743 2.393-.247.908-.825 1.65-1.65 1.898l-3.3 1.237-14.52-14.52 1.237-3.3c.248-.825.99-1.403 1.898-1.65Zm-4.208 7.673 12.87 12.87-4.95 1.815-9.735-9.735 1.815-4.95Zm5.198 15.758-7.425 2.722c-.99.413-2.063.165-2.805-.577-.743-.743-.99-1.815-.578-2.805l2.723-7.426 8.085 8.086Z"/>
</svg>
